<svg xmlns="http://www.w3.org/2000/svg"  viewBox="0 0 40 40" width="40px" height="40px"><path fill="#98ccfd" d="M21,33.975c0-0.135-0.055-0.265-0.152-0.358c-0.093-0.091-0.218-0.142-0.348-0.142 c-0.005,0-0.251,0.014-0.251,0.014C20.167,33.494,20.084,33.5,20,33.5c-9.098,0-16.5-7.402-16.5-16.5S10.902,0.5,20,0.5 c8.895,0,16.289,7.24,16.481,16.14c0.001,0.047,0.009,0.092,0.022,0.136c0.004,0.309,0,0.926-0.001,1.356L36.5,18.544 c0,6.818-6.95,15.857-15.494,20.155L21,33.975z"/><path fill="#4788c7" d="M20,1c8.625,0,15.795,7.021,15.981,15.65c0.001,0.063,0.009,0.125,0.023,0.185 c0.003,0.316,0,0.889-0.002,1.294L36,18.544c0,6.457-6.44,14.981-14.5,19.334v-3.903c0-0.27-0.109-0.529-0.303-0.717 c-0.187-0.182-0.437-0.283-0.697-0.283c-0.01,0-0.019,0-0.029,0c-0.086,0.003-0.171,0.008-0.256,0.014 C20.143,32.994,20.072,33,20,33c-8.822,0-16-7.178-16-16S11.178,1,20,1 M20,0C10.611,0,3,7.611,3,17s7.611,17,17,17 c0.169,0,0.332-0.02,0.5-0.025v4.722c0,0.29,0.24,0.507,0.503,0.507c0.073,0,0.147-0.016,0.218-0.052 C29.477,35.002,37,25.886,37,18.544c0-0.309,0.012-1.61,0-1.917l-0.019,0.001C36.782,7.413,29.264,0,20,0L20,0z"/><path fill="#fff" d="M24,24H12c-1.105,0-2-0.895-2-2V12c0-1.105,0.895-2,2-2h12c1.105,0,2,0.895,2,2v10	C26,23.105,25.105,24,24,24z"/><path fill="#fff" d="M25,17l5.488,5.488C30.677,22.677,31,22.543,31,22.276V11.724c0-0.267-0.323-0.401-0.512-0.212L25,17	L25,17z"/><path fill="#dff0fe" d="M26,17H10v-5c0-1.105,0.895-2,2-2h12c1.105,0,2,0.895,2,2V17z"/><path fill="#dff0fe" d="M25,17h6v-5.276c0-0.267-0.323-0.401-0.512-0.212L25,17L25,17z"/></svg>